<svg xmlns="http://www.w3.org/2000/svg" width="512" height="512" fill="none" viewBox="0 0 512 512"><defs><linearGradient id="bg" x1="0" x2="512" y1="0" y2="512" gradientUnits="userSpaceOnUse"><stop stop-color="#34D399"/><stop offset="1" stop-color="#047857"/></linearGradient><filter id="sh" width="140%" height="140%" x="-20%" y="-20%"><feDropShadow dx="0" dy="6" flood-color="#022C22" flood-opacity=".32" stdDeviation="10"/></filter></defs><rect width="512" height="512" fill="url(#bg)" rx="112"/><rect width="26" height="64" x="168" y="104" fill="#FFF" rx="13"/><rect width="26" height="64" x="318" y="104" fill="#FFF" rx="13"/><g filter="url(#sh)"><rect width="312" height="272" x="100" y="148" fill="#FFF" rx="36"/></g><rect width="312" height="10" x="100" y="214" fill="url(#bg)" opacity=".25"/><g fill="url(#bg)" opacity=".35"><rect width="36" height="30" x="136" y="250" rx="10"/><rect width="36" height="30" x="204" y="250" rx="10"/><rect width="36" height="30" x="272" y="250" rx="10"/><rect width="36" height="30" x="340" y="250" rx="10"/><rect width="36" height="30" x="136" y="306" rx="10"/><rect width="36" height="30" x="204" y="306" rx="10"/><rect width="36" height="30" x="340" y="306" rx="10"/><rect width="36" height="30" x="136" y="362" rx="10"/><rect width="36" height="30" x="204" y="362" rx="10"/><rect width="36" height="30" x="272" y="362" rx="10"/><rect width="36" height="30" x="340" y="362" rx="10"/></g><rect width="36" height="30" x="272" y="306" fill="url(#bg)" rx="10"/></svg>