<svg xmlns="http://www.w3.org/2000/svg" width="512" height="512" viewBox="0 0 512 512" fill="none">
  <defs>
    <linearGradient id="bg" x1="0" y1="0" x2="512" y2="512" gradientUnits="userSpaceOnUse">
      <stop stop-color="#34D399"/>
      <stop offset="1" stop-color="#047857"/>
    </linearGradient>
    <filter id="sh" x="-20%" y="-20%" width="140%" height="140%">
      <feDropShadow dx="0" dy="6" stdDeviation="10" flood-color="#022C22" flood-opacity="0.32"/>
    </filter>
  </defs>

  <!-- rounded square background -->
  <rect width="512" height="512" rx="112" fill="url(#bg)"/>

  <!-- the hangers -->
  <rect x="168" y="104" width="26" height="64" rx="13" fill="#FFFFFF"/>
  <rect x="318" y="104" width="26" height="64" rx="13" fill="#FFFFFF"/>

  <!-- a calendar. One date is filled in: an event has many dates, but the
       reader is always looking for one of them. -->
  <g filter="url(#sh)">
    <rect x="100" y="148" width="312" height="272" rx="36" fill="#FFFFFF"/>
  </g>
  <rect x="100" y="214" width="312" height="10" fill="url(#bg)" opacity="0.25"/>

  <g fill="url(#bg)" opacity="0.35">
    <rect x="136" y="250" width="36" height="30" rx="10"/>
    <rect x="204" y="250" width="36" height="30" rx="10"/>
    <rect x="272" y="250" width="36" height="30" rx="10"/>
    <rect x="340" y="250" width="36" height="30" rx="10"/>
    <rect x="136" y="306" width="36" height="30" rx="10"/>
    <rect x="204" y="306" width="36" height="30" rx="10"/>
    <rect x="340" y="306" width="36" height="30" rx="10"/>
    <rect x="136" y="362" width="36" height="30" rx="10"/>
    <rect x="204" y="362" width="36" height="30" rx="10"/>
    <rect x="272" y="362" width="36" height="30" rx="10"/>
    <rect x="340" y="362" width="36" height="30" rx="10"/>
  </g>
  <rect x="272" y="306" width="36" height="30" rx="10" fill="url(#bg)"/>
</svg>
